<svg t="1640262634410" class="icon" viewBox="0 0 1466 1024" version="1.1" xmlns="http://www.w3.org/2000/svg" p-id="801" width="200" height="200"><path d="M575.474978 1023.988092c63.029755 0 114.227043-49.55003 114.227043-110.544861 0-56.506881-43.713844-103.015108-100.300111-109.676908v-100.839935a43.117126 43.117126 0 0 0 14.969534-8.983837l202.701302 72.587818a89.538029 89.538029 0 0 0-4.491919 28.396335c0 51.431476 43.115803 93.163319 96.259369 93.163318 53.144888 0 96.264661-41.73052 96.264661-93.163318s-43.119773-93.159349-96.264661-93.15935c-31.887991 0-60.181125 15.067443-77.698946 38.246802l-204.044246-73.166011v-1.444824l202.250125-87.366825c17.213509 24.342362 46.111298 40.280404 78.89635 40.280404 52.699004 0 95.510495-41.439438 95.510494-92.440907 0-50.9975-42.812814-92.435615-95.511818-92.435614-52.695035 0-95.511818 41.439438-95.511818 92.435614 0 8.696725 1.196081 17.245263 3.594858 25.214284l-200.904534 86.782016c-4.342409-4.345055-9.882221-7.676616-15.870564-9.849144v-78.382988c55.988226-6.81131 99.404373-53.025809 99.404374-109.096068 0-60.709041-50.899591-109.96799-113.775867-109.96799-62.877599 0-113.775867 49.258949-113.775867 109.96799 0 55.920748 43.115803 101.997646 98.95452 108.95185l0.296374 78.377696c-16.315125 5.509381-27.991467 20.141525-27.991467 37.381495 0 17.24394 11.676342 31.876084 27.991467 37.380173v100.838612c-55.988226 7.098422-99.404373 53.462432-99.404373 109.53269 0 60.99483 51.199934 110.544861 114.22572 110.544861v0.436622z" fill="#ffffff" p-id="802"></path></svg>
