<svg t="1640262766245" class="icon" viewBox="0 0 1024 1024" version="1.1" xmlns="http://www.w3.org/2000/svg" p-id="638" width="200" height="200"><path d="M512 112.313c227.937 0 412.99 179.092 412.99 399.686 0 220.595-185.053 399.688-412.99 399.688S99.01 732.594 99.01 512c0-220.594 185.053-399.686 412.99-399.686z m-77.055 661.619c47.638 0 86.333-37.45 86.333-83.55 0-42.708-33.039-77.859-75.807-82.894v-76.215a32.591 32.591 0 0 0 11.314-6.79l153.202 54.862a67.684 67.684 0 0 0-3.395 21.462c0 38.872 32.587 70.413 72.753 70.413 40.167 0 72.757-31.54 72.757-70.413s-32.59-70.41-72.757-70.41c-24.101 0-45.485 11.388-58.725 28.907l-154.217-55.299v-1.092l152.861-66.032c13.01 18.398 34.851 30.444 59.63 30.444 39.83 0 72.187-31.32 72.187-69.867 0-38.544-32.358-69.863-72.188-69.863-39.827 0-72.188 31.32-72.188 69.863 0 6.573 0.904 13.034 2.717 19.057l-151.844 65.59c-3.282-3.284-7.469-5.802-11.995-7.444v-59.242c42.316-5.148 75.13-40.077 75.13-82.455 0-45.884-38.47-83.114-85.992-83.114-47.523 0-85.992 37.23-85.992 83.114 0 42.265 32.587 77.09 74.79 82.346l0.224 59.238c-12.331 4.164-21.156 15.223-21.156 28.253 0 13.033 8.825 24.092 21.156 28.252v76.214c-42.316 5.365-75.13 40.407-75.13 82.785 0 46.1 38.697 83.55 86.332 83.55v0.33z" fill="#1A943F" p-id="639"></path></svg>
